<svg xmlns="http://www.w3.org/2000/svg" width="85" height="158" fill="none"><path fill="#000" d="M68.97 158c-9.47 0-41.75-1.86-44.25-2.54l-.48-1.3-1.68-4.43-.98-2.63c-.58-1.56-1.17-3.17-1.78-4.75a472.57 472.57 0 0 0-2.02-4.88c-.25-.58-.5-1.16-.7-1.74-.39-1.02-.76-2.03-1.12-3.05-.72-1.95-1.45-3.97-2.24-5.94-.8-2.04-1.53-4.14-2.23-6.17-.42-1.22-.85-2.49-1.3-3.73-.38-1.05-.83-2.08-1.26-3.09a108.97 108.97 0 0 1-5.4-15.86 35.13 35.13 0 0 1-1.12-7.36c-.06-1.38-.1-2.76-.13-4.13v-.25c-.05-1.71-.1-3.45-.17-5.16-.12-3.27-.28-6.2-.46-8.94-.06-.95-.18-1.9-.29-2.83-.08-.68-.16-1.3-.22-1.94-.09-1-.16-2.02-.23-3l-.23-2.99C.55 59.6.42 57.9.34 56.2c-.17-3.52-.27-6.62-.32-9.48-.04-2.2-.01-4.59.09-7.3.04-1.35.14-2.72.24-4.05l.15-2.21c.03-.4.04-.8.05-1.2l.07-1.4c.02-.31.06-.62.1-.92l.08-.68.32-3.38c.14-1.45.48-2.6 1.07-3.62a3.06 3.06 0 0 1 1.96-1.6 7.46 7.46 0 0 1 1.77-.23c.85 0 1.63.2 2.3.6a5.3 5.3 0 0 1 2.59 3.22l.24.88c.23.77.44 1.54.57 2.3.25 1.6.39 3.01.42 4.32.03 1.2.2 2.38.38 3.52.06.4.13.8.18 1.22.1.72.18 1.43.26 2.15.1.94.23 1.92.37 2.88.22 1.46.48 2.95.73 4.38l.37 2.15c.21 1.24.43 2.52.67 3.77.32 1.62.68 3.34 1.14 5.43.04.22.01.36-.12.55a9.03 9.03 0 0 0-1.61 3.96 21.12 21.12 0 0 0-.06 5.19l.1.94c.1 1.04.2 2.11.4 3.17.24 1.28.53 2.57.82 3.82.26 1.17.5 2.27.72 3.36.47 2.4 1.21 4.79 1.92 7.1l.78 2.58c.5 1.71.96 3.1 1.43 4.33.27.7.63 1.36 1 2.01l.36.67c.63 1.2 1.44 2.58 2.67 3.83a9.04 9.04 0 0 0 5.35 2.59 10.17 10.17 0 0 0 4.63-.45 52.3 52.3 0 0 0 3.42-1.34c.21-.1.3-.1.36-.1.05 0 .12.01.2.04a12.47 12.47 0 0 0 4.4.75c1.91 0 3.72-.5 5.53-1.5a8.17 8.17 0 0 0 4.06-4.8l.46-1.4c.2-.62.39-1.14.55-1.67.04-.1.06-.2.08-.3l.8.83c.53.57 1.07 1.15 1.58 1.72.89 1.02 1.58 2 2.11 3 .48.9 1.2 1.67 1.92 2.38.22.21.43.44.64.66a10.88 10.88 0 0 0 2.24 1.95l3.64 2.09a2.11 2.11 0 0 0 1.06.3c.24 0 .58-.04.83-.21.19-.14.28-.31.27-.5-.01-.21-.17-.42-.45-.6l-.79-.49c-.7-.44-1.42-.89-2.14-1.3a9.09 9.09 0 0 1-2.15-1.56l-.66-.7c-.62-.67-1.2-1.28-1.74-1.88-.16-.18-.28-.37-.4-.58l-.24-.37-.52-.76c-.5-.76-1-1.51-1.56-2.2-.38-.47-.84-.93-1.24-1.33-.33-.34-.67-.69-.98-1.05a20.03 20.03 0 0 1-1.96-2.53c-1.23-2.02-3.25-3.42-6.2-4.27a77.2 77.2 0 0 1-10.47-3.6 21.28 21.28 0 0 1-2.87-1.52 33.34 33.34 0 0 1-7.13-6.04 8.93 8.93 0 0 1-1.6-2.7c-.22-.6-.19-1.25.13-2.05.32-.83.86-1.62 1.69-2.47l.22.13c.48.25.93.47 1.36.73 2.26 1.36 4.81 2.44 7.06 3.4 1.16.48 2.47.96 3.86 1.4.56.17 1.13.26 1.7.35l.8.14c.13.03.26.04.39.04.52 0 .95-.24 1.1-.63.45-1.1.86-2.18 1.25-3.2l.15-.5c1.58.31 3.2.52 4.84.6l3.21.2c1.3.06 2.64.15 3.96.2 1.9.1 3.5.64 4.91 1.66a22.07 22.07 0 0 1 4.24 4.04l1.02 1.29c.64.81 1.23 1.56 1.85 2.29.83.97 1.7 1.9 2.59 2.75.58.57 1.27 1.06 1.92 1.55l.25.19c.59.43 1.2.85 1.91 1.29.73.46 1.41 1.01 2.21 1.8l.15.14a44.74 44.74 0 0 1 3.98 4.27 13.63 13.63 0 0 1 2.17 4.43c.46 1.5.37 3.03.29 4.52l-.06.94a26.9 26.9 0 0 1-.97 6.1l-.1.27a45.1 45.1 0 0 1-1.06 3.42c-.53 1.47-1.1 2.95-1.63 4.39a333.9 333.9 0 0 0-2.08 5.6c-.38 1.06-.66 2.13-.93 3.17 0 0-.25.96-.37 1.36l-.46 1.6c-.37 1.32-.76 2.67-1.1 4-.35 1.43-.69 2.88-1.01 4.29l-.5 2.17-.47 1.95c-.32 1.3-.64 2.61-.91 3.91-.24 1.16-.44 2.34-.64 3.48l-.29 1.7c-.05.28-.1.52-.16.73-.22.84-.42 1.68-.43 2.56 0 .31-.08.65-.15.97l-.06.22a26.84 26.84 0 0 0-.5 7.06c.02.17 0 .32 0 .47-.23.03-.76.06-1.94.06Z"/><path fill="#000" d="M73.2 77.96c-.4-.37-.79-.73-1.15-1.11-.72-.77-1.65-1.8-2.46-2.86-1.3-1.72-2.84-3.37-4.19-4.81a10.2 10.2 0 0 0-5.2-3.03c-1.1-.27-2.3-.43-3.76-.53h-.01v-.13c-.01-.53-.02-.93 0-1.35.12-1.59-.02-3.28-.45-5.34a17.97 17.97 0 0 1-.4-3.31c-.05-3.18.09-6.64.41-10.56.06-.64.05-1.29.04-1.92l-.01-1.1c0-.57.03-1.14.05-1.7l.38-12.28.07-2.9c.03-2.01.08-4.1.2-6.13.14-2.55.43-4.48.95-6.26.06-.21.09-.43.11-.64.02-.18.04-.33.08-.48.15-.67.28-1.35.42-2.03.33-1.66.67-3.38 1.27-5.02.28-.8.64-1.53 1.08-2.2.76-1.17 2.14-1.91 4.09-2.19a13.34 13.34 0 0 1 1.9-.07c1.16.05 2.01.46 2.71 1.3.49.59.89 1.21 1.2 1.9 1.16 2.56 1.29 5.2 1.32 7.91l.02 2.51c0 1.84.02 3.74.1 5.6.06 1.45.22 2.88.37 4.27l.17 1.62.14 1.22c.1.8.2 1.53.23 2.25.18 3.45.4 7.99.51 12.53.03 1.12.01 2.26 0 3.37v.12c-.02.89-.04 1.8-.03 2.71.01.91-.08 1.84-.17 2.74l-.15 1.78c-.05.84-.06 1.7-.08 2.52l-.06 1.86-.1 2.3c-.06.98-.11 1.99-.14 2.98l-.03 1.03c-.08 2.25-.17 4.58.03 6.89.04.37.05.75.06 1.12l.05.87.43 6.55ZM31.63 99.32c-.93 0-1.91-.14-3.02-.43-.74-.2-1.4-.59-2.03-1.2a15.79 15.79 0 0 1-2.65-3.64c-1.1-1.9-1.93-3.9-2.53-6.09-.34-1.24-.72-2.5-1.08-3.7-.4-1.33-.8-2.7-1.16-4.04-.27-1-.48-2.02-.69-3l-.34-1.63c-.13-.6-.28-1.2-.43-1.8-.29-1.19-.58-2.4-.78-3.6a26 26 0 0 1-.22-8.52 8.6 8.6 0 0 1 .96-3.1 4.84 4.84 0 0 1 4.06-2.37c.56-.03 1.07-.05 1.57-.05 1.75 0 3.24.23 4.57.7.78.28 1.36.6 1.8 1 .89.81 1.68 1.55 2.39 2.34.35.39.52.85.66 1.36-.48-.1-.96-.14-1.44-.14-1 0-2 .2-3.06.6-2.22.83-3.61 2.22-4.27 4.24a8.37 8.37 0 0 0-.42 1.88c-.08.93.28 1.79.68 2.66.85 1.81 2.44 3.26 3.99 4.66a36.96 36.96 0 0 0 5.38 4.05c.12.07.16.12.15.3v.18c-.07 1.4-.13 2.84-.18 4.27l-.07 2.92-.03 1.3-6.9 1.13c-.62.1-1.25.2-1.86.32-.87.18-1.25.66-1.02 1.34.4 1.24.91 2.3 1.54 3.27.77 1.18 1.86 2.2 3.34 3.1 1.2.75 2.58.85 3.78.85h.48l.62-.04a7.4 7.4 0 0 0 2.79-.5l.18.12c-.4.2-.8.36-1.21.51l-.57.22c-.94.35-1.91.53-2.98.53ZM53.94 65.55c-.73-.04-1.44-.08-2.15-.1-3-.08-5.92-.75-8.75-1.39l-.48-.1-5.25-1.21-2.02-.47c-.22-.52-.26-.93-.12-1.34.58-1.8 1.38-3.39 2.44-4.86a6.5 6.5 0 0 1 3.4-2.33 13.7 13.7 0 0 1 4.34-.7c1.41 0 2.87.2 4.46.6.8.22 1.38.67 2.04 1.19l.25.2c1.07.83 1.38 1.94 1.62 3.1.23 1.1.4 2.22.57 3.3l.11.7c.05.28.07.6.06.98l-.09 2.02-.01.43-.42-.02Z"/><path fill="#000" d="M42.25 98.28c-1.16 0-2.2-.25-3.18-.77a5.84 5.84 0 0 1-3.3-4.28c-.21-1.2-.21-2.43-.21-3.63 0-.64 0-1.28-.04-1.92a29.5 29.5 0 0 1 .14-3.68c.07-.77.13-1.53.16-2.28v-1.06l.24.1c.8.35 1.53.68 2.28.99a44.7 44.7 0 0 0 7.76 2.56c1.03.22 2.36.56 3.46 1.21.57.34.98.7 1.26 1.07l.73.96c.26.36.35.67.3 1a15.98 15.98 0 0 1-1.7 5.15c-.2.37-.39.74-.55 1.12-.5 1.13-1.67 1.9-2.85 2.54-1.1.6-2.42.76-3.7.87a6.7 6.7 0 0 1-.8.05Zm-4.97-5.93c0 .29-.01.57.03.84l.04.22c.08.56.17 1.13.44 1.67a3.42 3.42 0 0 0 2.48 1.82c.51.1.98.21 1.46.21h1.23c.58 0 1.28 0 1.98-.1a4.5 4.5 0 0 0 3.05-1.9 7.3 7.3 0 0 0 1.42-3.49c.13-1.03.29-2.08.42-3 .12-.75-.18-1.06-1.15-1.22-3.2-.52-6.43-.79-9.74-1.03-.13-.02-.24-.02-.34-.02-.94 0-1.1.55-1.17.84-.23.84-.12 3.78-.16 4.2l.01.96ZM42.01 69l-1.3-.31c-1.48-.4-2.83-.97-4.32-1.62l-1.06-.46c-.96-.42-1.93-.83-2.87-1.28a99.9 99.9 0 0 1-2.85-1.44l-.61-.31a4.52 4.52 0 0 1 1.78-.5h.29c.73 0 1.49.13 2.3.4 1.03.33 2.1.6 3.13.86l.53.13c1.55.4 3.1.78 4.68 1.17l1.48.37L42.01 69ZM32.42 96.73c-1.52-.01-2.67-.45-3.42-1.3a18.41 18.41 0 0 1-2.9-4.06c.37-.08.72-.16 1.09-.21 1.79-.27 3.59-.53 5.39-.78l.85-.12.01.77c.06.82.13 1.78.24 2.73.08.76.41 1.51 1.03 2.37l.28.39c-.32.1-.67.15-1.07.17-.36.03-.76.04-1.27.04h-.23Z"/><path fill="#000" d="M42.65 95.55c-.64 0-1.24-.07-1.8-.2-.76-.17-1.21-.62-1.3-1.28-.1-.6-.1-1.21-.12-1.82v-.57c-.02-.62-.02-1.25-.02-1.87v-1.78c2.15.12 6.72.64 8.25.93l-.16.9-.16.87-.27 1.5a4.54 4.54 0 0 1-.96 2.13c-.52.66-1.28 1.02-2.39 1.13-.36.04-.72.06-1.07.06Z"/></svg>