<svg xmlns="http://www.w3.org/2000/svg" width="93" height="111" fill="none"><path fill="#000" d="m18.89 30.55 3.7-2.46c8.67-5.82 14.34-9.63 25.93-9.48 11.26.18 17.02 4.94 22.58 9.54.92.75 1.84 1.52 2.77 2.25 6.08 4.76 12.52 6.27 19.14 4.46C84.04 11.03 66.94.26 60.38.02 54.81-.2 49.94 2.88 46.5 3.08 43.05 3.28 39.6.15 34.14 0c-5.45-.14-15.41 6.2-21.83 13.23C6.62 19.48 1.15 32.18 0 34.95c.08.03 8.35 2.52 18.89-4.4Zm-4.1-15.68c3.77-4.64 17.06-16.36 28.24-9.51.36.22.48.7.26 1.08-.22.37-.7.5-1.06.27-10.24-6.28-22.7 4.8-26.26 9.16a.76.76 0 0 1-1.09.11.8.8 0 0 1-.1-1.1ZM58.27 42.4l-.7.21s-2.07.76-3.07.94a29.7 29.7 0 0 1-8.67 1.33c-2.6 0-5.44-.4-9.2-1.49-.59-.08-1.78-.54-1.78-.54-1.78-.57-3.74-1.26-5.97-2.12-9.45-3.66-26.62-3.25-28.84-3.18C6.54 56.4 19.3 63.56 26.1 65.58a70.8 70.8 0 0 0 15.23 2.88 21.12 21.12 0 0 0-10.97-14.68.79.79 0 0 1-.41-1.03.77.77 0 0 1 1.01-.41c.06.03 3.05 1.37 6.08 4.59 1.94 1.75 3.8 3.97 4.67 6.5 2.2 6.45 1.91 8.98 1.91 15.92 0 13.3-.83 17.62-1.57 21.4-1.15 5.92-.26 10.23 2.53 10.24 3.63.02 2.68-5.85 2.5-8.79-.2-2.93-1.82-5.18-1.61-15.13.12-6.06 0-11.82 0-15.33a23 23 0 0 1 1.15-6.57l.02-.08v-.03c.52-1.7 1.26-3.3 2.34-4.43.3-.3.62-.55.94-.77a4.44 4.44 0 0 1 2.7-.92c.81 0 1.55.2 2.24.53.94.37 1.78.99 2.51 1.86a12.04 12.04 0 0 1 2.2 4.5c.6 1.76.89 3.53.89 4.83v11.13s-.25 3.61-1.14 7.2c-.84 3.39-.5 7.56 1.67 7.56 1.52 0 2.37-2.12 1.68-6.08-.75-4.36-.94-5.21-.94-8.77v-9.95s-.07-1.6.18-3.78l.04-.31c.04-.33.09-.64.15-.96a15.96 15.96 0 0 1 2.87-7.18 31.78 31.78 0 0 1 4.64-5.87c.31-.3.8-.27 1.09.04a.8.8 0 0 1-.04 1.11c-.07.07-5.65 5.45-6.97 11.76 1.26-.3 2.54-.62 3.86-1C85.44 60.45 91.8 41.6 92.98 37.5c-1.7.12-11.98.81-20.58 1.61-5.44.52-10.05 2-14.13 3.3Z"/><path fill="#000" d="M45.93 40.82H34.85v.39c4.8 1.56 8.1 2.1 11.08 2.1v-2.5ZM49.8 43.01c2.4-.33 5.01-1.15 7.78-2.04v-.15h-10.1v2.43c.77-.05 1.54-.13 2.32-.24ZM52.62 60.62a3.4 3.4 0 0 0-2.54 1.12c-1.52 1.57-2.27 4.41-2.64 6.9 3.37-.05 7.05-.34 11-1-.4-1.97-1.09-3.93-2.22-5.28a4.49 4.49 0 0 0-3.6-1.74ZM62.8 27.07c.3.43.82.8 1.79.8 1.36 0 2.62.04 3.54-.14-.4-.33-.81-.66-1.23-.98-.03-.02-.06-.03-.08-.06a43.31 43.31 0 0 0-2.31-1.65l-.56-.37c-.38-.24-.76-.49-1.16-.72v3.12ZM32.48 23.76v4.28c.67 1.12 2.42 2.77 6.93 2.77 4.7 0 6.3-1 6.82-2.22V20.2a30.2 30.2 0 0 0-13.75 3.56ZM48.5 20.18h-.73v8.8c.72 1.01 2.45 1.76 6.55 1.76 4.52 0 6.27-1.64 6.93-2.76V23.1c-3.37-1.7-7.38-2.85-12.76-2.93ZM25.89 27.76c.9.14 2.08.11 3.36.11.85 0 1.37-.3 1.68-.66v-2.6a89.31 89.31 0 0 0-5.04 3.15Z"/></svg>