<svg xmlns="http://www.w3.org/2000/svg" width="282" height="282" fill="none"><g clip-path="url(#a)"><path fill="#000" d="M141 282c77.87 0 141-63.13 141-141S218.87 0 141 0 0 63.13 0 141s63.13 141 141 141Z"/><path fill="#fff" d="m145.86 10.65 2.85.27-1.36 16.7 9.78.82-.13 2.45-12.63-1.09 1.49-19.15ZM162.57 22.2c1.5-5.98 4.75-9.24 9.78-7.88 5.02 1.22 6.38 5.43 4.89 11.4-1.5 5.98-4.76 9.1-9.78 7.88-4.9-1.35-6.25-5.56-4.9-11.4Zm11.95 2.71c.81-3.12 1.36-7.33-2.72-8.42-4.07-.95-5.57 2.99-6.25 6.25-.81 3.12-1.35 7.33 2.72 8.42 3.94.95 5.43-3.12 6.25-6.25ZM184.3 17.85l2.71 1.22-.81 10.87-.68 6.38 4.07-4.89 7.2-8.28 2.72 1.08-13.72 15.08-2.85-1.22 1.36-20.24ZM205.08 27.36l10.6 6.65-1.23 2.04-8.15-5.16-3.12 4.89 7.06 4.48-1.22 2.04-7.07-4.49-3.26 5.17 8.15 5.16-1.22 2.03-10.6-6.65 10.06-16.16ZM227.63 59.68c5.02-4.21 7.06-3.67 8.28-2.17.81.95.95 2.03.4 3.26l1.1-.95 1.49 1.76-8.42 7.06c-1.09.96-1.09 1.77-.41 2.59.68.81 1.5.81 2.58 0l7.47-6.25c2.99-2.45 4.35-4.62 1.63-7.74-1.9-2.31-3.67-2.45-5.16-1.23l-1.63-1.9c1.63-1.36 5.03-2.44 8.7 1.9 4.61 5.44.67 8.83-1.91 11l-7.47 6.12c-2.72 2.3-4.89.81-5.98-.41-1.49-1.77-1.08-3.26-.4-4.08-1.63.41-2.86.14-3.94-1.08-1.22-1.77-1.22-3.8 3.66-7.88Zm.54 7.6 6.93-5.83a2.5 2.5 0 0 0-.28-2.18c-.81-.95-1.76-.68-5.43 2.31s-4.07 3.94-3.26 4.9c.4.8 1.22 1.08 2.04.8ZM260.22 87.52l4.62 11.69-2.3.95-3.68-9.1-5.97 2.3 3.12 8.02-2.17.95-3.13-8.01-7.33 2.98-1.09-2.58 17.93-7.2ZM250.85 110.75l.95 4.62 14-3.13-.96-4.61 2.3-.55 2.59 11.82-2.3.54-.96-4.48-13.99 3.12.95 4.49-2.3.54-2.59-11.82 2.31-.54ZM270.95 127.46l.27 4.89c.27 4.89-1.63 8-5.3 8.28a5.68 5.68 0 0 1-5.97-4.21l-7.2 6.38-.27-3.53 6.8-5.7-.14-2.58-7.07.4-.13-2.85 19.01-1.08Zm-9.5 3.4.13 2.16c.27 3.54 1.77 4.9 3.94 4.76 2.17-.14 3.53-1.63 3.4-5.16l-.14-2.18-7.33.41ZM258.05 145.8l-.27 2.7c-2.17-.13-3.53 1.23-3.8 4.08-.28 2.58.54 4.35 2.58 4.49 1.49.13 2.3-.82 2.98-2.45l1.9-3.94c1.1-2.17 2.72-3.94 5.44-3.67 3.4.28 4.89 3.4 4.48 7.2-.4 3.8-2.44 6.39-6.38 5.98l.27-2.72c2.71.14 3.53-1.76 3.67-3.53.27-2.44-.68-3.94-2.31-4.07-1.23-.14-2.18.68-2.86 2.17l-1.9 3.94c-1.36 2.99-2.85 4.2-5.43 3.94-3.94-.4-5.3-3.67-4.89-7.6.4-4.35 2.72-6.94 6.52-6.53ZM265.38 172.55l1.63-6.25 2.31.68-4.07 15.21-2.31-.68 1.63-6.25-16.16-4.2.68-2.72 16.3 4.2ZM253.84 207.18l-3.26 5.03c-2.18 3.4-5.44 4.75-8.15 2.85-1.63-1.09-2.17-2.58-1.77-4.48-1.35 1.08-3.53 1.9-5.56.54-2.86-1.76-3-5.43-.82-8.83l3.53-5.43 16.03 10.32Zm-15.49-6.79-2.03 2.99c-1.63 2.58-1.09 4.35.4 5.3 1.63 1.08 3.27.54 4.9-2.04l1.9-2.99-5.17-3.26Zm7.07 4.76-1.5 2.3c-1.63 2.45-1.63 4.08 0 5.17 1.5.95 3.13.67 4.76-1.9l1.63-2.45-4.9-3.12ZM229.66 213.02l-3.12 3.53 10.6 9.65 3.12-3.53 1.76 1.63-8.15 8.96-1.76-1.63 3.12-3.4-10.6-9.64-3.12 3.4-1.76-1.63 8.15-8.97 1.76 1.63ZM222.6 240.19l5.03-4.08 1.49 1.9-12.22 9.92-1.5-1.9 5.03-4.08-10.46-13.03 2.17-1.77 10.46 13.04ZM211.2 251.6l-10.88 6.25-1.22-2.04 8.42-4.75-2.85-5.03-7.33 4.21-1.23-2.04 7.34-4.2-2.99-5.3-8.42 4.75-1.22-2.04 10.86-6.25 9.51 16.44ZM174.8 264.1c.67 3.39-.96 5.29-3.13 5.7-1.77.4-3.94-.41-4.9-2.45a4.66 4.66 0 0 1-3.52 4.21c-2.04.41-4.35-.68-5.03-4.07-.81-4.08.68-10.73 5.16-16.7 6.66 3.66 10.6 9.23 11.41 13.3ZM132.14 271.7l-2.85-.27 1.9-16.57-9.78-1.09.27-2.45 12.5 1.5-2.04 18.88ZM115.57 259.75c-1.63 5.97-5.02 8.96-10.05 7.6-4.89-1.36-6.25-5.57-4.48-11.54 1.63-5.98 5.02-8.97 10.05-7.6 4.89 1.35 6.11 5.7 4.48 11.54Zm-11.68-3.26c-.81 3.12-1.63 7.33 2.45 8.42 4.07 1.08 5.56-2.85 6.52-5.98.81-3.12 1.63-7.33-2.45-8.42-4.07-1.09-5.7 2.99-6.52 5.98ZM93.84 263.28l-2.72-1.22 1.23-10.87.81-6.38-4.2 4.75-7.48 8.01-2.72-1.22 14.13-14.53 2.85 1.36-1.9 20.1ZM73.33 253.1l-10.32-6.94 1.36-2.03 8.01 5.43 3.26-4.75-6.93-4.62 1.36-2.04 6.93 4.62 3.4-5.16-8.02-5.44 1.36-2.03 10.19 7.06-10.6 15.9ZM51.87 220.09c-5.16 4.07-7.2 3.4-8.28 1.9-.82-1.09-.95-2.04-.28-3.4l-1.08.95-1.36-1.76 8.7-6.8c1.08-.8 1.21-1.76.54-2.57-.68-.82-1.5-.95-2.58 0l-7.75 5.97c-3.12 2.45-4.48 4.48-1.9 7.6 1.9 2.45 3.67 2.59 5.16 1.37l1.5 2.03c-1.77 1.36-5.03 2.31-8.56-2.17-4.35-5.57-.27-8.83 2.17-10.87l7.61-5.97c2.85-2.18 4.89-.68 5.98.68 1.35 1.76.95 3.26.27 4.07 1.63-.27 2.85 0 3.8 1.22 1.09 1.77 1.09 3.67-3.94 7.75Zm-.27-7.75-7.06 5.57c-.27.68-.27 1.5.27 2.18.81.95 1.76.81 5.43-2.18 3.67-2.98 4.21-3.8 3.4-4.75a2.13 2.13 0 0 0-2.04-.81ZM20.23 191.16 16 179.2l2.31-.81 3.26 9.23 5.98-2.17-2.85-8.15 2.3-.81 2.86 8.15 7.47-2.72.95 2.72-18.06 6.52ZM30.28 168.34l-.82-4.62-14.12 2.58.81 4.62-2.3.4-2.18-11.95 2.3-.4.82 4.61L28.92 161l-.82-4.61 2.31-.41 2.17 11.95-2.3.4ZM10.72 150.95l-.14-5.02c-.13-4.9 1.77-8.02 5.57-8.15 3.12-.14 5.16 1.76 5.84 4.48l7.47-6.11.14 3.53-6.93 5.57.14 2.58 7.06-.14.13 2.86-19.28.4Zm9.64-3.12v-2.17c-.13-3.67-1.63-4.9-3.8-4.9-2.18 0-3.53 1.5-3.53 5.03v2.18l7.33-.14ZM24.16 133.03l.41-2.72c2.17.13 3.67-1.09 3.94-3.94.27-2.58-.4-4.35-2.3-4.62-1.5-.13-2.32.68-3.13 2.31L21.04 128c-1.09 2.17-2.85 3.94-5.57 3.53-3.4-.4-4.75-3.67-4.35-7.33.55-3.8 2.72-6.25 6.66-5.84l-.4 2.71c-2.72-.27-3.54 1.63-3.81 3.53-.27 2.45.68 3.94 2.17 4.08 1.23.13 2.18-.55 3-2.04l2.03-3.94c1.5-2.99 2.99-4.2 5.57-3.8 3.94.54 5.16 3.8 4.61 7.74-.54 4.35-2.98 6.93-6.79 6.39ZM17.78 106l-1.77 6.24-2.3-.67 4.48-15.08 2.3.68-1.9 6.25 16.03 4.75-.81 2.72-16.03-4.9ZM30.41 71.77l3.4-4.89c2.3-3.4 5.57-4.48 8.28-2.72 1.63 1.09 2.04 2.72 1.63 4.49 1.36-1.1 3.53-1.77 5.57-.28 2.72 1.9 2.85 5.57.54 8.97l-3.8 5.43-15.62-11Zm8.29 2.3 1.63-2.3c1.63-2.31 1.76-3.94.13-5.16-1.36-.95-3.12-.82-4.75 1.63l-1.63 2.44 4.62 3.4Zm7.06 4.9 2.04-2.99c1.76-2.58 1.22-4.35-.14-5.3-1.5-1.08-3.26-.54-4.89 1.77l-2.04 3.12 5.03 3.4ZM54.86 66.74l3.26-3.4-10.32-9.9-3.26 3.39-1.77-1.63 8.42-8.83L52.96 48l-3.26 3.4 10.32 9.91 3.26-3.4 1.77 1.64-8.42 8.82-1.77-1.63ZM62.74 39.85l-5.16 3.94-1.5-1.9 12.63-9.51 1.5 1.9-5.16 3.94L75.1 51.53l-2.31 1.63-10.05-13.3ZM74.55 28.85l11-5.84 1.1 2.17-8.56 4.48 2.71 5.17 7.47-3.94 1.09 2.17L81.89 37l2.85 5.43 8.56-4.48 1.08 2.17-10.86 5.57-8.97-16.84ZM111.23 17.44c-.55-3.4 1.22-5.3 3.26-5.57a4.39 4.39 0 0 1 4.75 2.58c.14-2.17 1.9-3.66 3.67-4.07 2.03-.41 4.34.81 4.89 4.2.67 4.08-1.09 10.74-5.7 16.58-6.4-3.94-10.2-9.64-10.87-13.72Z"/></g><path fill="#fff" d="M152.73 190.62c-4.34 0-19.13-1.17-20.27-1.6l-.22-.8-.77-2.78-.45-1.64-.81-2.97-.56-1.86-.37-1.18-.32-1.1c-.18-.63-.34-1.27-.51-1.9l-1.02-3.72c-.38-1.27-.7-2.59-1.03-3.85l-.6-2.34c-.17-.65-.37-1.3-.57-1.93l-.37-1.19a86.54 86.54 0 0 1-2.1-8.73c-.3-1.63-.48-3.14-.52-4.6l-.05-2.58v-.16l-.08-3.23c-.06-2.04-.13-3.87-.21-5.59-.03-.59-.09-1.19-.14-1.77l-.1-1.2-.1-1.89-.1-1.86c-.07-1.06-.13-2.13-.16-3.18-.08-2.2-.13-4.15-.15-5.93a117.6 117.6 0 0 1 .15-7.1l.07-1.38.02-.75.03-.88.05-.57.03-.43c.06-.7.1-1.4.15-2.11.06-.9.22-1.63.5-2.26.23-.56.51-.87.9-1 .28-.1.55-.15.8-.15.4 0 .75.13 1.06.38.62.5 1.02 1.17 1.18 2.01l.11.55c.1.48.2.96.26 1.44.12 1 .18 1.88.2 2.7 0 .75.09 1.49.17 2.2a45.55 45.55 0 0 1 .2 2.1c.05.6.1 1.2.17 1.8.1.92.22 1.85.33 2.75l.17 1.34.31 2.36c.14 1.01.3 2.09.52 3.4a.5.5 0 0 1-.05.34c-.4.77-.65 1.6-.74 2.47-.1 1.02-.11 2.08-.03 3.25l.05.59c.04.64.09 1.32.18 1.98.11.8.24 1.6.38 2.39.11.73.23 1.41.32 2.1.22 1.5.56 3 .89 4.44l.35 1.61c.24 1.07.44 1.93.66 2.71a12.03 12.03 0 0 0 .62 1.68c.29.74.66 1.6 1.22 2.4a3.85 3.85 0 0 0 3.07 1.67c.51 0 1.02-.12 1.5-.34.54-.26 1.07-.55 1.57-.84.1-.06.14-.06.16-.06a4.43 4.43 0 0 0 2.1.5c.89-.01 1.72-.32 2.54-.95a5.01 5.01 0 0 0 1.87-3l.2-.87.26-1.05c.01-.06.03-.13.03-.2l.37.53.72 1.08c.4.63.73 1.25.97 1.88.22.56.55 1.04.88 1.48l.3.42a5.9 5.9 0 0 0 1.02 1.21l1.66 1.3c.11.09.23.17.37.19h.12c.11 0 .27-.02.38-.13a.4.4 0 0 0 .12-.3c0-.14-.08-.27-.2-.38l-.36-.3c-.32-.28-.65-.56-.99-.82a4.54 4.54 0 0 1-.98-.97l-.3-.45-.8-1.17c-.07-.11-.13-.23-.18-.36l-.11-.23-.24-.48c-.23-.47-.46-.94-.72-1.37-.17-.3-.38-.58-.56-.84l-.45-.65c-.34-.53-.66-1.05-.9-1.58a4.92 4.92 0 0 0-2.84-2.67 29.43 29.43 0 0 1-4.8-2.25 9.25 9.25 0 0 1-1.3-.95 17.82 17.82 0 0 1-3.27-3.78 6.27 6.27 0 0 1-.74-1.7 2.3 2.3 0 0 1 .06-1.27 5 5 0 0 1 .78-1.55l.1.09.62.45c1.04.85 2.2 1.53 3.24 2.12.53.31 1.13.6 1.76.88.26.1.52.17.78.22l.37.09.18.03c.23 0 .43-.16.5-.4a125.74 125.74 0 0 0 .64-2.32c.73.2 1.47.33 2.22.39l1.47.11 1.81.14c.87.06 1.6.4 2.25 1.03.7.7 1.34 1.52 1.94 2.53l.47.8c.3.51.56.98.84 1.43.39.61.79 1.2 1.2 1.72.26.36.57.67.87.97l.12.12c.27.27.55.53.87.8.34.3.65.64 1.01 1.13l.07.1a26.5 26.5 0 0 1 1.82 2.66c.53.93.8 1.92 1 2.77.2.94.17 1.9.13 2.83l-.03.59c-.04 1.3-.19 2.58-.44 3.8l-.04.18c-.15.7-.3 1.43-.5 2.14-.23.91-.5 1.84-.74 2.74l-.95 3.5c-.18.66-.3 1.34-.43 1.99l-.17.85-.2 1a93.7 93.7 0 0 0-.97 5.18l-.24 1.36-.2 1.22c-.15.81-.3 1.63-.43 2.44l-.29 2.18-.13 1.06-.07.46c-.1.53-.2 1.05-.2 1.6 0 .2-.04.4-.07.6l-.03.14a22.77 22.77 0 0 0-.23 4.71c-.1.02-.34.04-.88.04Z"/><path fill="#fff" d="M154.66 140.57a21.98 21.98 0 0 1-1.65-2.48c-.6-1.08-1.3-2.1-1.92-3.01a4.62 4.62 0 0 0-2.38-1.9 7.82 7.82 0 0 0-1.72-.33h-.01V131.93c.06-1 0-2.06-.2-3.34a15.2 15.2 0 0 1-.18-2.07c-.03-2 .03-4.15.18-6.6.03-.4.02-.81.02-1.2v-.7c0-.34 0-.7.02-1.06 0 0 .17-7.1.17-7.67l.03-1.82c.02-1.25.04-2.55.1-3.83.06-1.6.2-2.8.43-3.91.03-.14.04-.27.05-.4l.03-.3c.08-.43.14-.85.2-1.27.15-1.04.3-2.11.58-3.14.13-.5.3-.96.5-1.38.34-.73.97-1.2 1.87-1.37a4.5 4.5 0 0 1 .87-.04c.53.03.92.29 1.24.8.23.38.4.77.55 1.2.53 1.6.59 3.25.6 4.95l.01 1.57a55.69 55.69 0 0 0 .3 7.18l.06.77c.05.49.09.95.1 1.4.09 2.16.2 5 .24 7.83v2.19c0 .55-.02 1.13-.01 1.7 0 .56-.04 1.14-.08 1.7l-.07 1.12-.04 1.57-.02 1.17-.05 1.44c-.03.6-.05 1.24-.06 1.86l-.02.64c-.04 1.4-.07 2.87.02 4.31l.03.7c0 .2 0 .37.02.54l.2 4.1ZM135.63 153.93c-.43 0-.88-.1-1.39-.27a2.06 2.06 0 0 1-.93-.75c-.53-.71-.9-1.51-1.21-2.28-.5-1.19-.88-2.43-1.16-3.8l-.5-2.33-.53-2.52c-.12-.62-.22-1.26-.31-1.88l-.16-1.01c-.06-.38-.12-.76-.2-1.13-.13-.74-.26-1.5-.35-2.25a22.17 22.17 0 0 1-.1-5.33c.09-.74.2-1.36.44-1.94.26-.6.66-1.05 1.2-1.32.2-.1.48-.14.66-.15.25-.03.49-.04.71-.04.8 0 1.5.14 2.1.44.35.17.62.38.82.62.4.51.77.98 1.1 1.47.16.24.24.53.3.85a2.55 2.55 0 0 0-.66-.09c-.46 0-.92.12-1.4.38a3.75 3.75 0 0 0-1.96 2.65c-.08.34-.16.75-.19 1.17-.04.58.13 1.12.31 1.66a9.7 9.7 0 0 0 1.83 2.92c.76.95 1.6 1.8 2.46 2.53.06.04.08.08.07.2v.1l-.08 2.67-.03 1.83-.01.81-3.17.7-.85.2c-.4.12-.57.42-.47.85.19.77.42 1.44.71 2.04.35.74.85 1.37 1.53 1.94.55.47 1.18.53 1.73.53h.22c.1 0 .19-.02.28-.03l.23-.01c.4-.02.75-.16 1.05-.3l.09.08-.56.32-.26.13c-.43.22-.88.34-1.36.34ZM145.84 132.8l-.98-.05c-1.38-.05-2.72-.47-4-.87l-.23-.07-2.4-.75-.93-.3c-.1-.32-.12-.58-.05-.83.26-1.13.63-2.12 1.11-3.04.35-.67.86-1.14 1.56-1.46.65-.3 1.3-.43 1.99-.43.65 0 1.31.12 2.04.38.37.13.63.4.93.73l.12.13c.49.52.63 1.21.74 1.94.1.69.19 1.38.26 2.06l.05.44c.02.17.03.37.03.61l-.04 1.26v.28l-.2-.02Z"/><path fill="#fff" d="M140.49 153.27c-.53 0-1.01-.15-1.46-.47a3.7 3.7 0 0 1-1.5-2.68c-.1-.75-.1-1.53-.1-2.27 0-.4 0-.8-.02-1.2-.03-.77.02-1.55.06-2.3.03-.48.06-.96.07-1.43v-.66l.11.06 1.05.62c1.27.7 2.36 1.25 3.55 1.6a4.5 4.5 0 0 1 1.59.76c.26.21.45.43.57.66l.34.6c.12.23.16.42.13.63a14.76 14.76 0 0 1-1.03 3.92 3.45 3.45 0 0 1-3 2.13c-.12.03-.24.03-.36.03Zm-2.28-3.7c0 .18 0 .35.02.52l.01.14c.04.35.08.7.2 1.05.22.59.61.98 1.14 1.13.24.07.45.13.67.13h.56c.27 0 .59 0 .91-.06.57-.12 1.03-.5 1.4-1.18a5.6 5.6 0 0 0 .65-2.19l.2-1.87c.04-.48-.1-.67-.54-.77-1.46-.32-2.94-.49-4.46-.65h-.15c-.43 0-.5.34-.54.52-.1.53-.05 2.37-.07 2.63v.6ZM140.38 134.97l-.6-.2c-.67-.24-1.3-.6-1.97-1l-.49-.3c-.44-.26-.88-.52-1.31-.8-.44-.28-.86-.58-1.3-.9l-.29-.2c.3-.2.56-.28.82-.3h.13c.34 0 .68.07 1.06.24.47.21.96.38 1.43.54l.24.09 2.14.72.68.24-.54 1.87ZM135.99 152.3c-.7 0-1.23-.27-1.57-.8-.5-.8-1.02-1.63-1.33-2.55.17-.05.33-.1.5-.13l2.47-.48.4-.08v.48c.02.52.05 1.11.1 1.7.04.48.2.96.48 1.49l.12.24c-.14.06-.3.1-.49.11-.16.02-.34.03-.58.03h-.1Z"/><path fill="#fff" d="M140.67 151.57c-.3 0-.56-.04-.82-.13-.35-.1-.56-.38-.6-.8-.04-.37-.05-.76-.05-1.13v-.36l-.01-1.17v-1.11c.98.07 3.07.4 3.77.58l-.07.56-.07.54-.12.95c-.06.46-.2.91-.44 1.32-.24.42-.59.64-1.1.71-.16.03-.33.04-.49.04Z"/><defs><clipPath id="a"><path fill="#fff" d="M0 0h282v282H0z"/></clipPath></defs></svg>