<svg xmlns="http://www.w3.org/2000/svg" width="147" height="327" fill="none"><g fill="#000" clip-path="url(#a)"><path d="M17.16 208.47c-.2-.26-.31-.58-.21-.96a.15.15 0 0 0 .02-.06 6.35 6.35 0 0 1 .16-2.38c.3-1.16.89-2.27 1.35-3.37 1.2-2.87 2.39-5.76 3.6-8.63 2.05-4.87 4.23-9.68 6.44-14.47 1.38-2.98 2.71-6.01 4.22-8.93l-2.95.05c-3.85 3.49-8.06 7.33-11.34 10.25-2.86 2.53-5.77 5.15-7.5 8.55-1.17 2.31-1.74 4.87-2.22 7.4a123.83 123.83 0 0 0-1.87 15.28h4.04c.53 0 .91.36 1.08.83.26.7.48 1.41.67 2.13.34 1.28.61 2.6.74 3.91a6.9 6.9 0 0 1-.5 3.81c-.79 1.52-2.7 1.88-4.25 2.05-.68.08-1.5.08-2.2-.13.75 2.46 4.05 3.76 6.82 3.22 4.97-.96 4.17-2.17 8.48-11.77l.34-.85a11.37 11.37 0 0 1-2.76-2.1 8.98 8.98 0 0 1-2.16-3.84ZM9.63 167.12c7.55.36 15.07.46 22.62.22.73-.03 1.46-.03 2.2-.05.07 0 .13-.02.2 0 .03 0 .04-.02.05-.02l.58.01c11.38-.28 22.78-.07 34.15.3 1.02-2.37 2.02-4.75 3.03-7.13 3.25-7.67 6.8-15.23 10.8-22.54 1.6-2.92 3.04-5.9 6.04-7.6 3.02-1.7 6.69-1.88 9.97-.85 3.1.98 6 2.96 7.75 5.73 2.04 3.22 1.36 6.52.66 10.05a252.62 252.62 0 0 1-5.27 20.88c1.18.38 2.48.45 3.7.56a283.4 283.4 0 0 0 29.29.64c1.06-.03 2.14-.04 3.2-.06.09-.1.17-.2.27-.28 4.34-3.84 6.65-9 7.84-14.52V119.2c-.44-4.02-.95-8.02-1.4-12.02a148.53 148.53 0 0 1-.38-33.34c.43-3.99 1.07-7.94 1.78-11.88V0H44.11c-6.23.45-12.46 1-18.7 1.46-.2.1-.39.17-.6.24-6.85 1.88-14.35.4-20.9 2.38C1.8 7.88.63 12.24 0 16.65v149.68c.97.2 1.99.27 2.95.36 2.23.2 4.46.32 6.68.43Zm90.92-80.7.34.08.51.2.32.16a8.1 8.1 0 0 1 2.38 2.03c.25.32.43.65.58 1.04l.05.12.03.14.13.58c.14.63.28 1.29.47 1.9 0 .43-.03.85-.07 1.26-.17 1.36-.53 2.61-1.03 3.8.58-.12 1.16-.19 1.74-.2.25.17.55.3.86.38a9.4 9.4 0 0 1 3.3 1.82c.58.45 1.3 1.08 1.79 1.67.4 1.3.23 2.7-.3 3.98-.22.29-.44.56-.7.83-.3.36-.5.54-.96.95a23.1 23.1 0 0 1-3.3 2.45c-.1.06-.46.27-.51.32-2.42 1.4-5.02 2.13-7.7 2.86-1.87.5-3.7 1.2-5.62 1.47-1.9.28-3.76 0-5.58.7l-.1.04h-.63c-.72.54-2.05.12-1.91-1.03.36-2.97 1.02-5.9 1.94-8.74l.8-1.66c1.03-2.1 1.8-4.28 2.75-6.4 1.1-2.44 3-4.38 4.6-6.49.24-.32.35-.65.38-.97.14-.18.28-.33.43-.5.27-.13.52-.32.74-.62.15-.22.32-.4.48-.61.4-.35.82-.67 1.26-.93a4.81 4.81 0 0 1 2.53-.64ZM44.97 35.3c.34-.63.56-1.38.54-2.29 0-.63.04-1.26.07-1.9a20.7 20.7 0 0 1 1.11-3.63 11.4 11.4 0 0 1 3.92-4.89c.04 0 .06-.03.09-.05.09-.02.7-.28.77-.3.43-.14.87-.26 1.31-.36.04 0 .79-.12.87-.15.41-.04.83-.06 1.25-.07 2.3-.07 4.35 0 6.37.58a10.48 10.48 0 0 1 3.16 1.58c.37.3.74.63 1.1.95a49.2 49.2 0 0 0 3.67 3.03c.6.84 1.17 1.7 1.68 2.57a34.29 34.29 0 0 1 3.5 8.92 20.91 20.91 0 0 1 3.1-2.92c.73-.04 1.49-.21 2.2-.51 2.62-1.13 6.16-1.3 9.11-1.24 1.8.05 4.08.26 5.9.68a14.2 14.2 0 0 1 5.19 8.19 26.8 26.8 0 0 1-.64 5.87 56.76 56.76 0 0 1-2.27 7.92l-.6 1.63-.55 1.38c-2.68 6.24-6.7 11.45-10.87 16.75-2.91 3.7-5.49 7.69-8.83 11.02-3.3 3.3-7.33 5.43-9.9 9.47l-.1.23c-.43.3-.81.63-1.23.92-.62 2.1-3.84 3.2-5.22.76-3.6-6.33-6.57-13-8.9-19.9-.3-1.47-.56-2.94-.83-4.39-1.05-5.58-2.72-10.97-3.93-16.5-1.39-6.35-.52-12.87-.48-19.3.02-1-.25-1.8-.66-2.46 0-.54.04-1.06.1-1.59Z"/><path d="M40.28 201.64a7.49 7.49 0 0 1-1.45-4.27c0-1.18.38-2.22.82-3.29l3.38-8.11c2.29-5.5 4.63-10.93 7.2-16.25l-12.92-.16-1.97.04c-1.97 3.6-3.6 7.4-5.31 11.12-1.94 4.2-3.83 8.43-5.63 12.69l5.06 1.36c.59.16.94.8.78 1.38-.21.78-.45 1.54-.7 2.3-.94 2.84-1.96 5.88-3.69 8.34a5.03 5.03 0 0 1-3.44 2.34c-.8.15-1.66.24-2.52.2a9.13 9.13 0 0 0 5.04 3.83c1.64.51 3.44.64 5.04-.08 1.6-.7 2.83-2.07 3.93-3.37 2.23-2.62 4.26-5.38 6.38-8.07ZM52.76 169.47a175.73 175.73 0 0 0-3.55 7.5c-1.52 3.4-2.87 6.86-4.3 10.3 1.55.47 3.1.94 4.65 1.43.65.19.88.77.79 1.38-.09.61-.22 1.22-.36 1.84-.55 2.44-1.33 5.06-2.86 7.09-.78 1.05-1.79 2-3.1 2.32-.33.07-.65.1-.98.12.7.7 1.53 1.28 2.44 1.74 6.02-5.9 11.5-12.28 15.96-19.58 2.72-4.45 4.94-9.08 7.01-13.8a633.7 633.7 0 0 0-15.7-.34Z"/><path d="M110.75 169.27c-2.86-.16-6.2-.07-8.96-.98a7648 7648 0 0 0-1.65 5.67c-1.36 4.71-3 9.34-4.83 13.89-.84 2.1-1.7 4.17-2.59 6.25-1.05 2.5-2.89 4.8-4.38 7.06-6.76 10.28-12.8 21-18.7 31.8-.7 1.28-2.64.14-1.94-1.14l.5-.9c2.79-5.09 5.61-10.16 8.51-15.18 4.05-7.04 8.5-13.77 12.87-20.6 1.3-2.03 2.11-4.33 3.01-6.55.85-2.07 1.67-4.16 2.44-6.26a178 178 0 0 0 4.33-14.04c1.26-4.57 2.58-9.12 3.8-13.7 1.18-4.51 2.45-9.13 3-13.76.8-6.57-7.77-10.85-13.33-9.52a8.95 8.95 0 0 0-4.59 2.64c-.92 1.06-1.57 2.47-2.26 3.69-1.88 3.34-3.61 6.75-5.28 10.19-3.58 7.32-6.59 14.84-9.83 22.3a110.23 110.23 0 0 1-11.85 21.13c-9.1 12.47-21.24 22.14-33.07 31.88-.27.22-.57.29-.85.27-8.71 8.64-13.03 15.48-14.43 25.41C7.84 269.02 7.6 271.7 7.42 327l60.77-9.41c-1.05-50.98.9-38.81 16.58-51.54 5.26-4.27 36.3-24.4 39.78-30.22 4.94-8.26 4.9-9.7 4.65-19.33l-4.02-46.75h-1.34c-4.37-.1-8.73-.23-13.09-.48ZM71.1 186.62c.28-.51 1.06-.73 1.55-.4.73.47 1.5.89 2.28 1.26l.47.22c.01 0 .03 0 .04.02l.27.1a8.5 8.5 0 0 0 1.47.43h.02c.09 0 .17 0 .25.02.06 0 .3-.04.38-.03.06 0 .13-.03.2-.05.6-.2 1.21.24 1.39.78.19.6-.23 1.2-.79 1.39-1.51.51-3.27-.22-4.65-.84-.85-.38-1.68-.84-2.47-1.35-.53-.35-.7-.98-.4-1.55Zm27.42-52.36 1.55.52c.6.2 1.13.56 1.72.96a4.86 4.86 0 0 1 2.11 4.06c.03 1.02-.17 2.01-.36 2.97l-.08.38c-.1.48-.26.94-.43 1.42l-.52 1.61c-.3.69-1.77 5.66-2.5 6.96-.26.46-.76 1.3-1.93.92l-.42-.16c-4-1.77-7.91-3.54-11.63-5.73-1.14-.67-1.33-1.29-.77-2.51.68-1.48 1.45-3.17 2.18-4.85.9-2.08 2.15-3.84 3.7-5.26 1.62-1.49 3.21-2.1 4.86-1.9.91.1 1.8.36 2.52.6Zm-29.37 57.8c.24.23.5.45.76.66l.09.06.16.12.5.36c.37.25.74.5 1.14.7a9.26 9.26 0 0 0 6.3 1.25c.6-.12 1.2.16 1.38.78.15.56-.2 1.27-.78 1.39-3.99.78-8.3-.92-11.14-3.74-1.04-1.02.56-2.61 1.59-1.58Z"/><path d="m90.18 140.45-1.31 2.72-.75 1.54-.78 1.64c1.98 1.26 8.09 4.34 11.04 5.56l1.1-3.33 1.13-3.54.33-1.06c.37-1.13.73-2.32.98-3.49.27-1.28-.1-2.33-1.05-3-.72-.52-1.5-.9-2.41-1.2-.49-.16-1.01-.3-1.56-.4a4.45 4.45 0 0 0-4.05 1.03 10.22 10.22 0 0 0-2.67 3.53ZM19.6 207.03c.53.06 1.07.05 1.6 0 .28-.01.56-.07.84-.12l.62-.15.13-.04.21-.12.09-.06h.01l.5-.5c.19-.21.22-.28.43-.59a28.53 28.53 0 0 0 2.26-4.58c.54-1.39 1-2.8 1.45-4.23l-5.18-1.4c-.03 0-.04-.02-.07-.03l-4.06 11.54c.35.14.78.24 1.17.28ZM6.83 221.52H6.8l.07.02-.04-.02ZM6.9 221.55l-.04-.01c.13.07.09.04.03 0ZM6.83 221.52c.02 0 .04 0 .07.02l.44.13c.06 0 .3.03.02 0l.18.03c.17.01.34.02.51.01.47-.01.74-.05 1.19-.15.24-.05.49-.12.74-.2l.45-.14.16-.07.12-.06.06-.06.07-.05.02-.05c.04-.08.08-.17.14-.25 0-.04.03-.09.04-.14l.1-.35.05-.28.02-.3c.01-.26.02-.5.01-.77 0-.32-.03-.63-.06-.94l-.02-.2-.01-.11-.06-.36a27.37 27.37 0 0 0-.95-3.8H6.78l-.39 7.93c.1.02.28.06.44.16Z"/><path d="M6.86 221.54h.03l-.06-.01h.03ZM43.1 189.07l-2.48 9.2c.1.02.19.04.28.1a7.56 7.56 0 0 0 .98.59c.27.1.56.18.85.23l.25.01c.1 0 .43-.05.33-.02l.28-.06.22-.08c.2-.12.4-.22.59-.36l.2-.16c.1-.1.2-.19.29-.3.1-.09.18-.2.28-.3l.07-.1c.02 0 .03-.02.07-.09a11.09 11.09 0 0 0 .92-1.55l.2-.42.14-.3.08-.22.07-.17.16-.44.27-.78c.34-1.08.6-2.18.82-3.29l-4.86-1.49Z"/></g><defs><clipPath id="a"><path fill="#fff" d="M0 0h147v327H0z"/></clipPath></defs></svg>