<svg xmlns="http://www.w3.org/2000/svg" width="282" height="282" fill="none"><g clip-path="url(#a)"><path fill="#000" d="M141 282a141 141 0 1 0 0-282 141 141 0 0 0 0 282Z"/><path fill="#fff" d="m146.5 33.2 10-12-8.8-.8.2-2 11.8 1-.2 1.8-10 12 9 .8v2l-12.2-1 .2-1.8ZM168.1 20.8l10.6 2.6-.5 2-8.2-2-1.2 5L176 30l-.5 2-7.1-1.7-1.3 5.2 8.2 2-.5 2.1-10.6-2.6 4-16.3ZM187.2 26.3l4 1.7c4 1.7 5.7 4.4 4.4 7.5-1.1 2.5-3.4 3.4-5.7 3l2.1 8.2-2.8-1.3-1.9-7.5-2-1-2.5 5.8-2.2-1 6.6-15.4Zm-1 8.8 1.7.7c2.9 1.3 4.5.6 5.2-1.2.8-1.7.2-3.4-2.7-4.6l-1.8-.8-2.5 5.9ZM199.4 41.2c3-4.6 6.5-6.3 10.3-3.9 3.9 2.4 3.8 6.3 1 10.8-3 4.6-6.5 6.3-10.3 3.9-3.8-2.4-3.8-6.3-1-10.8Zm9 5.6c1.6-2.4 3.3-5.7.1-7.7-3-2-5.4 1-6.9 3.4s-3.2 5.7 0 7.7c3 2 5.4-1 6.9-3.4ZM235.7 59.5l3.1 3.8c2.7 3.2 3.2 6.5.4 8.8-2.8 2.3-5.8 1.2-8.5-2l-1.6-2-4.7 4-1.6-1.9 13-10.7Zm-5 7.3 1.6 2c2 2.4 3.8 2.5 5.3 1.3 1.4-1.2 1.6-3-.4-5.4l-1.5-2-5 4.1ZM247.7 75.2l1.3 2.1-12.6 7.5 4.4 7.4-1.9 1.1-5.6-9.5 14.4-8.6ZM258.6 96.3l1 2.5-13.5 11.7-1-2.5 3.3-2.7-2.4-6.1-4.2.2-1-2.4 17.8-.7ZM248.1 99l2 5 2-1.8 4.6-3.7-6 .4h-2.6ZM251.8 113l.5 2.3c-1.8.5-2.6 2-2 4.4.4 2.2 1.6 3.5 3.3 3.1 1.2-.2 1.6-1.2 1.8-2.8l.5-3.8c.3-2.1 1.2-4 3.6-4.6 2.9-.6 5 1.6 5.7 4.8.7 3.3-.4 6-3.8 6.7l-.5-2.3c2.3-.6 2.5-2.4 2.2-4-.5-2.1-1.7-3-3-2.8-1.2.3-1.7 1.2-1.9 2.6l-.4 3.8c-.4 2.9-1.3 4.4-3.5 4.8-3.4.8-5.4-1.6-6.1-5-.8-3.8.4-6.5 3.6-7.3ZM265.3 135l-.3-5.7h2.1l.8 13.7-2.1.2-.3-5.8-14.7.9-.1-2.5 14.6-.8ZM253 149l-.4 4.2 12.5 1.2.4-4 2.1.2-1 10.6-2.2-.2.5-4.1-12.5-1.3-.4 4.1-2.2-.2 1.1-10.6 2.1.2ZM257 166.8c5.6 1.4 8 4.6 6.8 9-.8 2.8-2.8 5.5-7.2 4.5l.6-2.3c2.5.4 4-.7 4.5-2.8 1-3.7-2.1-5.1-5.3-6-3-.8-6.4-1-7.4 2.6-.6 2.5.2 3.9 2.5 4.7l-.6 2.3c-4.1-1.3-4.7-4.6-4-7.6 1.3-4.5 5-5.8 10.2-4.4ZM241 199.6l-1.4 2c-1.7-1-3.3-.5-4.6 1.6-1.3 1.9-1.3 3.6 0 4.6 1.2.7 2.1.3 3.4-.7l3-2.3c1.8-1.3 3.8-2 5.8-.7 2.5 1.6 2.4 4.7.6 7.4-1.9 2.9-4.5 4-7.4 2l1.3-2c2 1.3 3.4.2 4.3-1.2 1.2-1.8 1-3.3-.1-4-1-.7-2-.5-3.1.4l-3 2.4c-2.3 1.7-4 2.1-6 .9-2.8-2-2.5-5-.6-8 2-3.1 4.9-4.2 7.7-2.4ZM239 223l-1.6 2-5.3-5-3.8 4.3 5.3 4.8-1.7 1.8-12.4-11.2 1.6-1.9 5.6 5 3.8-4.1-5.6-5 1.7-1.9 12.4 11.3ZM221 229.8c3.3 4.2 3.8 8.2.3 11-3.5 2.9-7.2 1.6-10.5-2.6-3.5-4.2-3.9-8.2-.3-11 3.5-2.8 7.1-1.6 10.4 2.6Zm-8.3 6.8c1.8 2.2 4.4 4.9 7.3 2.6 2.8-2.4.8-5.5-1-7.7s-4.4-5-7.3-2.6c-2.8 2.3-.8 5.5 1 7.7ZM209.4 249l-4.3 2.5c-3.6 2-6.9 2-8.7-1.1-1.8-3.2-.2-6 3.5-8.1l2-1.2-3-5.4 2.2-1.2 8.3 14.6Zm-6.4-6-2.1 1.2c-2.8 1.5-3.2 3.2-2.2 4.9.9 1.6 2.6 2.2 5.3.6l2.2-1.2-3.2-5.6ZM164.5 248.8c6-1.2 9.2 2.3 10.1 6.8 1 4.6-.7 9-6.7 10.3-5.9 1.2-9.2-2.3-10.1-6.8-1-4.6.8-9.1 6.7-10.3ZM136.3 253 126 264.9l8.8 1-.2 2-11.8-1.3.2-1.8 10.4-11.7-9-1 .2-2.2 12 1.4-.2 1.9ZM114.3 264.8l-10.6-3 .6-2 8.2 2.3 1.3-4.9-7-2 .5-2 7 2 1.6-5.2-8.2-2.3.6-2 10.5 3-4.5 16.1ZM95.4 258.7l-3.9-1.8c-4-1.8-5.6-4.6-4.2-7.6 1.2-2.5 3.5-3.3 5.8-2.8l-1.9-8.3 2.8 1.3 1.6 7.7 2 .9 2.7-5.7 2.2 1-7 15.3Zm1.4-8.7-1.8-.8c-2.8-1.4-4.5-.7-5.3 1-.7 1.7-.2 3.4 2.7 4.7l1.7.8 2.7-5.7ZM83.7 243.4c-3 4.5-6.7 6.1-10.5 3.6-3.7-2.5-3.6-6.4-.6-10.8 3-4.6 6.7-6.1 10.4-3.6 3.8 2.5 3.6 6.4.7 10.8Zm-9-5.9c-1.5 2.4-3.3 5.7-.3 7.7 3.1 2.1 5.5-.8 7-3.2 1.6-2.3 3.4-5.6.4-7.7-3-2-5.5.9-7 3.2ZM48 224l-3-3.9c-2.6-3.3-3-6.5-.2-8.7 2.9-2.2 6-1.1 8.5 2.2l1.5 2 4.9-3.9 1.5 2L47.9 224Zm5.1-7.2-1.5-1.9c-2-2.5-3.7-2.7-5.2-1.5-1.5 1.1-1.8 3 .2 5.4l1.5 2 5-4ZM36.4 208l-1.2-2.2 12.8-7.1-4-7.5 1.8-1 5.3 9.6-14.7 8.1ZM26.2 186.5l-1-2.5 13.9-11.2.9 2.5-3.3 2.6 2.2 6.2 4.2-.1.9 2.4-17.8.1Zm10.6-2.3-1.8-5-2.1 1.7-4.8 3.6 6-.3h2.7ZM33.5 170.1l-.5-2.4c2-.4 2.7-1.9 2.3-4.3-.4-2.2-1.6-3.5-3.2-3.2-1.3.2-1.8 1.2-2 2.8l-.6 3.7c-.3 2.2-1.3 4-3.7 4.5-3 .6-5-1.7-5.5-5-.7-3.3.5-5.9 4-6.6l.3 2.4c-2.3.5-2.5 2.3-2.2 4 .4 2 1.6 3 2.9 2.8 1.1-.2 1.7-1.1 1.9-2.6l.6-3.7c.4-2.9 1.3-4.3 3.6-4.7 3.4-.7 5.3 1.8 6 5.2.7 3.7-.6 6.5-4 7.1ZM20.6 147.7l.2 5.6h-2.1l-.4-13.8h2.1l.2 5.7 14.7-.4v2.5l-14.7.4ZM33.4 134l.5-4.1-12.4-1.7-.6 4.1-2-.3 1.3-10.5 2.1.2-.5 4 12.4 1.7.6-4 2 .3-1.3 10.5-2.1-.2ZM29.9 116.2c-5.5-1.7-7.7-5-6.4-9.3.8-2.7 3-5.4 7.3-4.3L30 105c-2.4-.5-4 .6-4.6 2.7-1 3.6 2 5.2 5.1 6.1 3 .9 6.4 1.3 7.5-2.3.7-2.5 0-3.9-2.4-4.8l.7-2.3c4.1 1.4 4.6 4.8 3.7 7.7-1.3 4.5-5 5.7-10.2 4.2ZM47 83.9l1.4-2c1.7 1 3.3.6 4.7-1.5 1.3-1.8 1.4-3.6 0-4.5-1-.8-2-.4-3.4.5l-3 2.2c-1.8 1.3-3.8 2-5.8.5-2.5-1.7-2.3-4.7-.4-7.4 2-2.8 4.6-3.8 7.5-1.8l-1.4 2c-2-1.3-3.4-.3-4.4 1-1.2 1.9-1 3.4 0 4.2 1 .6 2 .4 3.2-.5l3.1-2.2c2.3-1.7 4-2 5.9-.7 2.8 2 2.4 5 .4 8-2.2 3-5 4-7.8 2.2ZM49.7 60.4l1.7-1.7 5.1 5 4-4.1-5.2-5 1.7-1.8 12 11.7-1.6 1.7-5.5-5.2-3.9 4.1 5.4 5.2-1.7 1.8-12-11.7ZM68 54.3c-3.4-4.4-3.7-8.4 0-11.1 3.5-2.7 7.1-1.3 10.4 3 3.3 4.3 3.5 8.3 0 11-3.6 2.7-7.3 1.3-10.5-3Zm8.4-6.5c-1.7-2.3-4.3-5-7.2-2.9-3 2.3-1 5.5.7 7.7 1.7 2.3 4.3 5 7.2 2.8 3-2.2 1-5.4-.7-7.6ZM80.1 35.3l4.3-2.3c3.7-2 7-1.7 8.7 1.5 1.6 3.1 0 6-3.7 7.9l-2.2 1.2 3 5.4-2.2 1.2L80 35.3Zm6.1 6.4 2.2-1.2c2.8-1.4 3.3-3.2 2.4-4.8-.9-1.7-2.6-2.3-5.4-.8L83.3 36l3 5.6ZM125 37c-6 1-9.2-2.6-10-7.1-.8-4.6 1-9 7-10s9.2 2.5 10 7c.7 4.6-1.1 9.1-7 10.1Z"/></g><g fill="#fff" clip-path="url(#b)"><path d="M115.3 150.6c-.1-.5-.3-.9-.6-1.3a3 3 0 0 1-.3-1.6c0-.4.2-.6-.2-.9l-.7-.2-3.9-1.2a9.7 9.7 0 0 0 2.8 4.5c.8 1.3 1.8 2.6 2.8 3.8a3 3 0 0 1-.2-1.2c0-.6.4-1.2.3-1.9Z"/><path d="m109.5 144 4.5 1.5c.5.1 1 .4 1.4.8.4.6.1 1 .2 1.7 0 1 .9 1.8 1 2.8 0 .6-.5 1.1-.5 1.8.1.5.4 1 .7 1.5 1.3 1.8 3.2 3.2 5.4 3.8 2.6.9 5.3 1.3 8 1.3a3.3 3.3 0 0 0 2.9-1.3c.5-.6.8-1.4 1-2.2-1.3-.8-2.4-1.9-3.3-3.2l-3.5-5a11 11 0 0 0-1.7-2.4c-.8-.5-1.7-.9-2.6-1l-2.7-.5c-.8 0-1.5 0-2.3-.2a2.4 2.4 0 0 1-2-2.4c0-1 .6-2.1.6-3.3 0-.7-.4-.8-.8-1.3-.5-.7 0-1.4 0-2.1l-.5-2.7-.1-2.4c0-3 .3-6.4-1.5-9.2-.4-.6.6-1.2 1-.6 2 3 1.6 6.6 1.7 10 0 .9 0 1.7.2 2.6.1.7.3 1.5.3 2.3 0 .4-.3 1.1 0 1.5l.6.6c.3.4.4.9.4 1.4 0 1-.7 2-.7 3.1-.1 1.6 1.8 1.4 3 1.5 1.7.2 3.5.6 5.1 1.2 1.7.7 2.5 2.4 3.5 3.8l3.1 4.5c.9 1.3 2 2.4 3.5 3l.2.3v.4c-.6 2.3-2 4.6-4.6 4.8-1.4 0-2.9 0-4.3-.3a23.6 23.6 0 0 1-5.4-1.2 29.6 29.6 0 0 0 30.6.2c6-3.7 10.6-9.2 13.3-15.7h-.2l-.8-.1a1.5 1.5 0 0 1-1.2-.8 4.7 4.7 0 0 1-.9-3.8c.7-2.2 3-3 4.9-4h.4c.3-3.3 0-6.6-.7-9.9-.1-2.3-1-4.6-2.6-6.4v-.2a24.1 24.1 0 0 0-3.2-4.2 26.6 26.6 0 0 0-17-8V106.3l-2.4-.5c-1.4-.2-2.9 0-4.2.3-4 .4-7.8 1.5-11.3 3.3a26 26 0 0 0-9 5.9 29.8 29.8 0 0 0-8.4 16.4 12 12 0 0 0-.3 5.2v2c0 1.4.4 2.7.9 4l.2 1.2Zm41.8-13.4a27.3 27.3 0 0 1 1.8 6.3c.4 2 .4 4 0 5.8-.5 1.7-1.3 4-3.1 4.5-1.8.6-3.6-.8-4.6-2.1-.6-.8-1.2-1.5-2-2.2-.7-.5-1.5-1-2.4-1.3-1.5-.8-3.7-1.7-4-3.6 0-1 0-2 .4-2.8.2-.8.5-1.6.9-2.3.3-.7.9-1.3 1.6-1.7.8-.5 1.8-.5 2.7-1 1.6-.7 3.1-2 4.9-1.7.6 0 1.1 0 1.7.2a3.8 3.8 0 0 1 2.1 2v-.1Zm-28.6-19c0-.7 1.2-.7 1.3 0 .2 2.3-.9 4.5-.7 6.7.3 1.2.7 2.3 1.2 3.5l.5 3.3.3 3c.1.5.3 1 .8 1 .4 0 .8-.2 1.2-.4 1.6-.6 3-1.8 3.6-3.4.8-1.6.8-3.7 2.7-4.4a3.1 3.1 0 0 1 2.5.3 2.6 2.6 0 0 0 2.5-.2 16 16 0 0 1 2.3-1.2c1-.3 2-.3 2.9-.2l7 .8a7 7 0 0 0 3-.2c.8-.3 1.4-.8 2-1.3 1.2-1.1 2.5-2 4-2.6a.6.6 0 0 1 .6.8c0 .2-.1.3-.3.3-1.8.6-3 2.2-4.6 3.3-2 1.3-4.5.9-6.8.7l-3.6-.4c-1.2-.3-2.3-.3-3.5-.2-1.7.4-3 2.1-4.9 1.8-.8-.1-1.8-1-2.7-.6-.9.3-1.3 1.6-1.5 2.5a8.1 8.1 0 0 1-3 4.3c-1 .8-3.5 2.2-4.7 1a4 4 0 0 1-.8-2.4c-.2-1-.2-2.2-.3-3.2-.1-1.2-.4-2.3-.9-3.4-.4-.9-.7-2-.7-3 0-2 .8-4 .6-6.1Z"/><path d="M163.2 138.7c-.4 1 .1 2.2.7 3.1l.1.2h.7l.7.2c.8-2 1.3-4.2 1.7-6.3l-2 1a4 4 0 0 0-1.9 1.8ZM147.8 129.7H147.5l-1.3.2h-.1c-1.2.3-2.1 1.1-3.2 1.6l-2.5.8c-.6.5-1.1 1-1.4 1.8-.3.6-.5 1.3-.6 2a2.5 2.5 0 0 0 .2 2.5c1 1.2 2.8 1.7 4.2 2.4.7.3 1.4.8 2 1.4l1.5 1.8c.8 1 2.5 2.7 4 1.6.6-.6 1-1.4 1.3-2.3.3-.7.5-1.5.6-2.3.1-1.7 0-3.4-.4-5.1-.3-1.7-.7-3.3-1.4-4.8a2.8 2.8 0 0 0-1.8-1.6h-.8Z"/><path d="m175 128-1-5.5a22.6 22.6 0 0 0-1-3.6 43 43 0 0 0-4.6-9.3l3.7-4.2c.7-.9-.5-2-1.3-1.3l-10 9.8 1.9 2.3a609 609 0 0 0 4.2-4.8 130.1 130.1 0 0 1 2 3.6c0 .2.2.3.4.4l.8 1.7a28.2 28.2 0 0 1 1.7 4.9v.5l.6 2.7c1.2 7 .3 14.1-2.6 20.6a39.8 39.8 0 0 1-13.3 16.4 26 26 0 0 1-7.7 3.8 37.7 37.7 0 0 1-31.1-4.7l3-2.7a13 13 0 0 1-2.5-1.4l-7.5 7.8a.8.8 0 0 0-.3.6.8.8 0 0 0 .3.6.9.9 0 0 0 1 .3l.3-.3 4-3.5a37 37 0 0 0 20.6 6.8h3.5c0 5.2.5 10.4 1.4 15.5l-12.6.9H128.6a.5.5 0 0 0 0 .7.4.4 0 0 0 .3.2 60.7 60.7 0 0 0 28.4-1.4.5.5 0 0 0-.1-.8 260.8 260.8 0 0 0-13.5.1v-.3c0-5.1 0-10.2-.3-15.2 4.1-.5 8.2-1.7 11.8-3.8A41.2 41.2 0 0 0 175 128Z"/></g><defs><clipPath id="a"><path fill="#fff" d="M0 0h282v282H0z"/></clipPath><clipPath id="b"><path fill="#fff" d="M41 41h200v207H41z"/></clipPath></defs></svg>